<svg width="25" height="25" viewBox="0 0 25 25" fill="none" xmlns="http://www.w3.org/2000/svg">
<path d="M20.8333 0H4.16806C3.06339 0.00329801 2.00494 0.443681 1.22395 1.22493C0.44296 2.00618 0.0029301 3.06478 0 4.16944V20.8333C0.00402609 21.9374 0.444496 22.9951 1.22533 23.7757C2.00616 24.5562 3.06398 24.9963 4.16806 25H20.8333C21.9372 24.996 22.9946 24.5557 23.7752 23.7752C24.5557 22.9946 24.996 21.9372 25 20.8333V4.16944C24.9967 3.06513 24.5568 2.00695 23.7761 1.22582C22.9955 0.444689 21.9376 0.00402812 20.8333 0ZM18.5563 17.5594C18.3453 18.0593 18.0162 18.5036 17.5941 18.8465C17.095 19.2341 16.5268 19.5234 15.9197 19.699C15.2394 19.9086 14.4285 20.0169 13.4899 20.0169H6.79079V5.43152H13.8759C15.1852 5.43152 16.2363 5.72726 17.0235 6.32845C17.8135 6.9338 18.2092 7.83072 18.2092 9.04698C18.2092 9.78007 18.0287 10.4118 17.6691 10.9311C17.3095 11.449 16.7944 11.853 16.1266 12.1362V12.1834C17.0179 12.3709 17.7052 12.7916 18.1592 13.4497C18.6132 14.1064 18.8437 14.9339 18.8437 15.9336C18.8437 16.4959 18.7354 17.0277 18.5313 17.5261L18.5591 17.5553V17.5594H18.5563ZM15.6628 13.9648C15.2338 13.5733 14.6368 13.383 13.862 13.383H9.35799V17.9315H13.8745C14.6437 17.9315 15.2505 17.7316 15.6767 17.3276C16.1044 16.9263 16.3209 16.3543 16.3209 15.6212C16.314 14.902 16.1044 14.3452 15.6767 13.9648H15.6573H15.6628ZM15.0367 11.0227C15.4518 10.6742 15.6531 10.1716 15.6531 9.51766C15.6531 8.78735 15.4712 8.2653 15.1019 7.96818C14.7354 7.67105 14.205 7.51555 13.5108 7.51555H9.34411V11.5392H13.5108C14.1161 11.5406 14.6354 11.3629 15.0367 11.0227Z" fill="#07CFF6"/>
</svg>
