<svg width="25" height="25" viewBox="0 0 25 25" fill="none" xmlns="http://www.w3.org/2000/svg">
<path d="M0 0V25H25V0H0ZM2.27273 2.27273H22.7273V22.7273H2.27273V2.27273ZM17.3227 11.3636C15.7034 11.3636 14.6568 12.4 14.6568 13.7727C14.6568 15.2614 15.5318 15.9739 16.8477 16.5341L17.3023 16.7307C18.1352 17.0977 18.6307 17.3114 18.6307 17.9375C18.6307 18.4659 18.1455 18.8455 17.3898 18.8455C16.4943 18.8455 15.9852 18.3705 15.5966 17.733L14.108 18.5852C14.6352 19.6432 15.7364 20.4545 17.4318 20.4545C19.1591 20.4545 20.4545 19.5591 20.4545 17.9182C20.4545 16.3841 19.5795 15.7034 18.0239 15.0455L17.5716 14.85C16.7841 14.5045 16.4489 14.2784 16.4489 13.7386C16.4489 13.2955 16.783 12.95 17.3239 12.95C17.8523 12.95 18.1852 13.1773 18.4989 13.7386L19.9261 12.8216C19.3216 11.7648 18.4886 11.3636 17.3239 11.3636H17.3227ZM10.675 11.4727V17.6807C10.675 18.5875 10.2864 18.8227 9.69205 18.8227C9.06705 18.8227 8.79659 18.392 8.51591 17.8841L7.02727 18.7818C7.45909 19.6989 8.31023 20.4545 9.76818 20.4545C11.3864 20.4545 12.5 19.5909 12.5 17.7V11.4727H10.6761H10.675Z" fill="#07CFF6"/>
</svg>
