<svg width="27" height="25" viewBox="0 0 27 25" fill="none" xmlns="http://www.w3.org/2000/svg">
<path d="M22.1994 8.103C21.912 8.00041 21.6223 7.90536 21.3303 7.81795C21.3794 7.60941 21.4245 7.40339 21.4646 7.20099C22.1225 3.8773 21.6924 1.19967 20.2233 0.318069C18.8148 -0.527093 16.5112 0.354181 14.1848 2.46127C13.9555 2.6693 13.7313 2.88333 13.5124 3.10315C13.3659 2.95698 13.2168 2.81364 13.0652 2.67322C10.6269 0.420257 8.183 -0.529289 6.71551 0.354839C5.30824 1.20264 4.89154 3.71979 5.48385 6.86973C5.54278 7.18169 5.60931 7.49205 5.68339 7.8005C5.33746 7.9028 5.00365 8.01168 4.68418 8.12759C1.82556 9.16484 0 10.7903 0 12.4763C0 14.2177 1.95982 15.9643 4.9372 17.0234C5.17858 17.1089 5.42198 17.1882 5.66715 17.2611C5.58753 17.5933 5.51683 17.9277 5.45516 18.2641C4.89048 21.3593 5.33144 23.817 6.73492 24.6594C8.18448 25.5294 10.6174 24.6353 12.9864 22.4801C13.1785 22.3049 13.3663 22.1247 13.5498 21.9397C13.7868 22.1778 14.0302 22.4089 14.2796 22.6328C16.5744 24.6877 18.8407 25.5175 20.2428 24.6728C21.691 23.8003 22.1617 21.1601 21.5506 17.9479C21.5025 17.6963 21.4485 17.4459 21.3887 17.197C21.5596 17.1443 21.7273 17.09 21.8908 17.0336C24.9861 15.9664 27 14.241 27 12.4763C27 10.7841 25.1155 9.14771 22.1994 8.103ZM21.5281 15.8943C21.3804 15.9451 21.229 15.9942 21.0746 16.0419C20.7328 14.9161 20.2717 13.7191 19.7074 12.4822C20.2459 11.2748 20.6893 10.093 21.0214 8.97451C21.2976 9.05771 21.5656 9.14541 21.824 9.23794C24.3226 10.1332 25.8466 11.4565 25.8466 12.4763C25.8466 13.5625 24.2006 14.9726 21.5281 15.8943ZM20.4192 18.1811C20.6894 19.6014 20.7279 20.8856 20.5489 21.8896C20.3882 22.7917 20.0648 23.3931 19.6649 23.634C18.814 24.1466 16.9944 23.4804 15.0319 21.7229C14.7999 21.5147 14.5736 21.2998 14.353 21.0786C15.1139 20.2126 15.8742 19.206 16.6163 18.088C17.9216 17.9675 19.1547 17.7703 20.273 17.5013C20.328 17.7326 20.377 17.9594 20.4192 18.1811ZM9.20489 23.5454C8.37359 23.8509 7.71145 23.8597 7.3112 23.6195C6.45954 23.1084 6.10548 21.135 6.58842 18.488C6.64583 18.1752 6.71156 17.8641 6.78554 17.5551C7.89149 17.8098 9.11566 17.9928 10.424 18.1033C11.1711 19.1972 11.9534 20.2028 12.7418 21.0833C12.5742 21.252 12.4027 21.4164 12.2274 21.5763C11.1798 22.5293 10.1301 23.2054 9.20489 23.5454ZM5.31035 15.8876C3.99379 15.4193 2.90651 14.8106 2.16127 14.1465C1.49154 13.5497 1.15351 12.9571 1.15351 12.4763C1.15351 11.4531 2.61921 10.1481 5.06387 9.2611C5.36055 9.15353 5.67105 9.052 5.99326 8.95673C6.33118 10.1004 6.77436 11.2963 7.3092 12.5055C6.7674 13.7327 6.31789 14.9476 5.9767 16.1048C5.75291 16.0381 5.53073 15.9657 5.31035 15.8876ZM6.61584 6.63912C6.10843 3.94041 6.44541 1.90467 7.29348 1.39373C8.19671 0.849534 10.1941 1.62544 12.2993 3.57085C12.4366 3.69799 12.5717 3.82772 12.7044 3.95995C11.92 4.83662 11.1449 5.83468 10.4044 6.92219C9.13454 7.04469 7.91902 7.24138 6.80147 7.50491C6.73262 7.21802 6.67072 6.92926 6.61584 6.63912ZM18.2624 9.63209C17.9985 9.15758 17.7247 8.68905 17.4414 8.22682C18.3028 8.3402 19.1282 8.49068 19.9033 8.67464C19.6707 9.45087 19.3806 10.2623 19.0392 11.0943C18.7897 10.6016 18.5307 10.1141 18.2624 9.63209ZM13.513 4.81785C14.045 5.41769 14.5778 6.08735 15.1019 6.81397C14.0387 6.76171 12.9738 6.76149 11.9107 6.81331C12.4353 6.09338 12.9727 5.42461 13.513 4.81785ZM8.73302 9.64032C8.46812 10.1184 8.21398 10.6029 7.9708 11.0933C7.63499 10.2643 7.34759 9.44912 7.11292 8.66191C7.88326 8.48256 8.70476 8.33592 9.56074 8.22462C9.27423 8.68968 8.99825 9.16178 8.73302 9.64032ZM9.58532 16.8134C8.70096 16.7107 7.86713 16.5716 7.09699 16.3971C7.33535 15.5959 7.62908 14.7633 7.97217 13.9165C8.21631 14.4073 8.47151 14.8921 8.73756 15.3704C9.01114 15.8621 9.29443 16.3438 9.58532 16.8134ZM13.5448 20.2193C12.9981 19.6056 12.4528 18.9265 11.9203 18.1961C12.4373 18.2172 12.9643 18.2279 13.5 18.2279C14.0503 18.2279 14.5943 18.2151 15.1298 18.1903C14.604 18.9338 14.0732 19.6139 13.5448 20.2193ZM19.0501 13.8733C19.411 14.7294 19.7152 15.5576 19.9567 16.3451C19.1739 16.531 18.3287 16.6807 17.4381 16.7919C17.7235 16.3211 17.9998 15.8444 18.267 15.3622C18.5386 14.872 18.7997 14.3756 19.0501 13.8733ZM17.2679 14.7624C16.8589 15.5018 16.4269 16.2272 15.9726 16.9374C15.1497 16.998 14.325 17.0282 13.5 17.0277C12.6597 17.0277 11.8425 17.0005 11.0554 16.9474C10.5893 16.2388 10.1491 15.5122 9.73571 14.769C9.3243 14.0298 8.94012 13.2746 8.58379 12.505C8.93921 11.7352 9.32233 10.9796 9.73234 10.2398C10.1422 9.49985 10.5788 8.77644 11.0414 8.07095C11.8444 8.00773 12.6677 7.9748 13.4999 7.9748C14.3358 7.9748 15.1604 8.00806 15.9631 8.07172C16.4211 8.77615 16.855 9.49719 17.2641 10.2335C17.6754 10.9716 18.0636 11.7235 18.428 12.488C18.0674 13.2602 17.6804 14.0189 17.2679 14.7624ZM19.6472 1.35795C20.5513 1.90061 20.903 4.08892 20.3349 6.95863C20.2986 7.14171 20.2579 7.3282 20.2136 7.51732C19.0933 7.24818 17.877 7.04809 16.6034 6.92373C15.8616 5.82425 15.0928 4.82465 14.3211 3.95929C14.5233 3.7564 14.7304 3.55877 14.9421 3.36658C16.9354 1.56134 18.7984 0.848546 19.6472 1.35795ZM13.5 9.96719C14.8315 9.96719 15.911 11.0906 15.911 12.4763C15.911 13.8621 14.8315 14.9855 13.5 14.9855C12.1685 14.9855 11.089 13.8621 11.089 12.4763C11.089 11.0906 12.1685 9.96719 13.5 9.96719Z" fill="#07CFF6"/>
</svg>
