<svg width="25" height="15" viewBox="0 0 25 15" fill="none" xmlns="http://www.w3.org/2000/svg">
<path d="M25 14.5967C24.6361 14.739 24.2345 14.7387 23.8709 14.5958C23.5072 14.453 23.2067 14.1774 23.026 13.8212L19.4323 8.68216L18.9115 7.96371L14.7417 13.8276C14.5719 14.1689 14.2877 14.4346 13.9422 14.5749C13.5967 14.7153 13.2137 14.7207 12.8646 14.5903L18.2375 7.13647L13.2396 0.403282C13.599 0.269367 13.992 0.267592 14.3525 0.398255C14.713 0.528918 15.0189 0.784038 15.2188 1.12066L18.9438 6.32323L22.6896 1.1422C22.8607 0.806979 23.145 0.548467 23.4884 0.415808C23.8318 0.283148 24.2103 0.28559 24.5521 0.422671L22.6125 3.08428L19.9854 6.62052C19.9125 6.68781 19.8541 6.77029 19.8141 6.86255C19.7741 6.95481 19.7535 7.05476 19.7535 7.15585C19.7535 7.25695 19.7741 7.3569 19.8141 7.44916C19.8541 7.54142 19.9125 7.6239 19.9854 7.69119L24.9896 14.5978L25 14.5967ZM0.00209583 7.04383L0.439596 4.80877C1.64168 0.38928 6.54168 -1.44939 9.91251 1.28653C11.8865 2.89039 12.3792 5.161 12.2823 7.72027H1.16251C0.982304 12.2906 4.17189 15.0502 8.25001 13.6402C8.91111 13.3941 9.50286 12.9823 9.97225 12.4417C10.4416 11.9011 10.774 11.2485 10.9396 10.5424C11.1552 9.825 11.5104 9.70221 12.1625 9.90902C12.0538 10.7841 11.7547 11.6222 11.2876 12.3605C10.8205 13.0987 10.1975 13.7179 9.46563 14.1712C8.25669 14.855 6.86962 15.1261 5.50274 14.9456C4.13587 14.7651 2.85918 14.1423 1.85522 13.1663C0.862543 12.0109 0.262592 10.5515 0.146887 9.01068C0.146887 8.75756 0.0635541 8.52059 0.00730416 8.29331C0.00223336 7.8772 -0.000197247 7.46105 1.24961e-05 7.04491L0.00209583 7.04383ZM1.17605 6.73577H11.2323C11.1698 3.4225 9.14792 1.07218 6.45105 1.05064C3.44897 1.00756 1.30105 3.30617 1.16876 6.72069L1.17605 6.73577Z" fill="#07CFF6"/>
</svg>
