<svg width="23" height="25" viewBox="0 0 23 25" fill="none" xmlns="http://www.w3.org/2000/svg">
<path d="M0 0L2.09313 22.5L11.4861 25L20.9036 22.4969L23 0H0.00163024H0ZM19.1088 21.0656L11.5383 23.0766V23.0875L11.5187 23.0813L11.4992 23.0875V23.0766L3.9287 21.0656L2.13878 1.84062H20.8987L19.1088 21.0656ZM15.0334 12.9438L14.7008 16.5219L11.4861 17.3531L8.27961 16.525L8.07421 14.3219H5.18392L5.58658 18.6562L11.4976 20.2234L17.3906 18.6562L18.1812 10.1844H7.68786L7.4254 7.35781H18.4421L18.6996 4.59844H4.27755L5.05514 12.9438H15.0334Z" fill="#07CFF6"/>
</svg>
