<svg width="15" height="25" viewBox="0 0 15 25" fill="none" xmlns="http://www.w3.org/2000/svg">
<path d="M7.5 0.834299L8.12258 0.270989C8.04354 0.1856 7.94736 0.117406 7.84017 0.0707507C7.73298 0.0240951 7.61713 0 7.5 0C7.38287 0 7.26702 0.0240951 7.15983 0.0707507C7.05264 0.117406 6.95646 0.1856 6.87742 0.270989L7.5 0.834299ZM7.5 22.5001L6.83693 23.0151C6.91587 23.1142 7.01657 23.1944 7.13143 23.2495C7.24628 23.3046 7.37231 23.3332 7.5 23.3332C7.62769 23.3332 7.75372 23.3046 7.86857 23.2495C7.98343 23.1944 8.08413 23.1142 8.16307 23.0151L7.5 22.5001ZM2.64592 16.397L1.98284 16.9137L2.64592 16.397ZM3.06097 5.61911L2.43839 5.05413L3.06097 5.61577V5.61911ZM11.939 5.61911L12.5616 5.0558L11.939 5.61744V5.61911ZM12.3541 16.397L13.0172 16.9137L12.3541 16.397ZM8.3436 25V0.834299H6.6564V25H8.3436ZM8.16307 21.9851L3.30899 15.8837L1.98284 16.9137L6.83693 23.0167L8.16307 21.9868V21.9851ZM3.68186 6.18075L8.12426 1.39761L6.87573 0.270989L2.43839 5.05413L3.68017 6.18075H3.68186ZM6.87742 1.39761L11.3181 6.18075L12.5616 5.0558L8.12258 0.272655L6.87573 1.39594L6.87742 1.39761ZM11.691 15.882L6.83693 21.9851L8.16307 23.0151L13.0172 16.912L11.691 15.882ZM11.3181 6.18242C12.5339 7.49339 13.2386 9.18833 13.3066 10.9649C13.3745 12.7415 12.8014 14.4841 11.6893 15.882L13.0172 16.912C14.3764 15.2032 15.0768 13.0729 14.9933 10.9013C14.9099 8.72964 14.0481 6.65794 12.5616 5.0558L11.3181 6.18075V6.18242ZM3.30899 15.882C2.19716 14.484 1.6243 12.7412 1.69259 10.9646C1.76089 9.18802 2.4659 7.49319 3.68186 6.18242L2.43839 5.05413C0.951946 6.65627 0.09012 8.72798 0.00668073 10.8996C-0.0767586 13.0712 0.623617 15.2015 1.98284 16.9103L3.30899 15.8804V15.882Z" fill="#07CFF6"/>
</svg>
