<svg width="23" height="25" viewBox="0 0 23 25" fill="none" xmlns="http://www.w3.org/2000/svg">
<path d="M11.4984 25C11.1515 25 10.8057 24.9125 10.502 24.7427L7.32914 22.9334C6.8558 22.6782 7.08707 22.5875 7.24268 22.5344C7.87488 22.3229 8.0024 22.274 8.67782 21.9052C8.74806 21.8667 8.841 21.8813 8.9134 21.923L11.3514 23.3177C11.3967 23.3409 11.4471 23.353 11.4984 23.353C11.5496 23.353 11.6001 23.3409 11.6454 23.3177L21.1499 18.0303C21.1942 18.0045 21.2308 17.9682 21.2562 17.9247C21.2816 17.8813 21.2948 17.8322 21.2947 17.7824V7.20957C21.2946 7.15882 21.2809 7.10895 21.255 7.06479C21.2291 7.02063 21.1917 6.98367 21.1466 6.95749L11.6464 1.67421C11.6017 1.65013 11.5513 1.63748 11.5 1.63748C11.4487 1.63748 11.3983 1.65013 11.3536 1.67421L1.85552 6.95853C1.81024 6.98444 1.77264 7.02114 1.74634 7.0651C1.72003 7.10907 1.7059 7.15882 1.7053 7.20957V17.7824C1.70551 17.8324 1.71954 17.8814 1.74595 17.9244C1.77235 17.9674 1.81017 18.0029 1.85552 18.0272L4.45886 19.4771C5.87131 20.1584 6.73693 19.3563 6.73693 18.5501V8.11164C6.73693 7.96373 6.86012 7.8481 7.01358 7.8481H8.21853C8.36874 7.8481 8.4941 7.96477 8.4941 8.11164V18.5501C8.4941 20.3678 7.46746 21.4094 5.68003 21.4094C5.13104 21.4094 4.69769 21.4094 3.49058 20.8355L0.996382 19.4532C0.693209 19.283 0.441647 19.0392 0.26681 18.746C0.0919721 18.4528 -2.56858e-05 18.1205 5.3794e-09 17.7824V7.20957C5.3794e-09 6.52312 0.381478 5.88146 0.996382 5.53979L10.5009 0.2461C10.8071 0.0846305 11.1505 0 11.4995 0C11.8485 0 12.1918 0.0846305 12.498 0.2461L22.0015 5.53979C22.6174 5.8825 23 6.52312 23 7.20957V17.7824C22.9994 18.1207 22.9069 18.4529 22.7317 18.746C22.5565 19.0391 22.3047 19.283 22.0015 19.4532L12.498 24.7427C12.1954 24.9125 11.8507 25 11.4984 25ZM19.1723 14.5762C19.1723 12.597 17.7847 12.0699 14.8636 11.6981C11.9123 11.322 11.6118 11.1272 11.6118 10.4616C11.6118 9.91162 11.8658 9.17725 14.052 9.17725C16.0048 9.17725 16.7245 9.58246 17.0206 10.8512C17.0341 10.9098 17.0679 10.9623 17.1164 10.9999C17.1649 11.0376 17.2253 11.0583 17.2876 11.0585H18.5206C18.5583 11.0581 18.5955 11.0505 18.63 11.036C18.6645 11.0215 18.6957 11.0004 18.7216 10.9741C18.7477 10.9468 18.7676 10.9145 18.7801 10.8794C18.7926 10.8442 18.7973 10.807 18.794 10.7699C18.6027 8.58455 17.0963 7.56581 14.052 7.56581C11.3417 7.56581 9.72499 8.66788 9.72499 10.5168C9.72499 12.522 11.333 13.0762 13.9342 13.3241C17.0466 13.6178 17.2876 14.0564 17.2876 14.6459C17.2876 15.6699 16.4349 16.1063 14.4324 16.1063C11.9177 16.1063 11.3644 15.498 11.1785 14.2918C11.1682 14.2291 11.1349 14.1721 11.0848 14.131C11.0346 14.09 10.9709 14.0675 10.9051 14.0678H9.67636C9.64033 14.0676 9.60459 14.0742 9.57123 14.0873C9.53787 14.1004 9.50754 14.1198 9.48201 14.1443C9.45648 14.1688 9.43625 14.198 9.42249 14.2301C9.40874 14.2622 9.40172 14.2966 9.40187 14.3314C9.40187 15.8751 10.2729 17.7147 14.4324 17.7147C17.4453 17.7157 19.1723 16.573 19.1723 14.5762Z" fill="#07CFF6"/>
</svg>
