<svg width="26" height="25" viewBox="0 0 26 25" fill="none" xmlns="http://www.w3.org/2000/svg">
<path d="M14.7562 23.9533C15.2176 23.618 15.8769 23.0815 16.2395 22.7462C22.5595 25.3003 24.6214 20.3082 24.4568 18.4029C24.2745 16.2932 21.6994 10.2725 12.9433 10.2724C12.5316 11.254 11.3276 11.7465 10.3318 11.1597C9.10968 10.4396 9.10968 8.62966 10.3318 7.90961C11.2811 7.35015 12.4194 7.77178 12.8804 8.66283C18.1964 8.63535 24.1561 10.9322 25.8227 17.3232C27.0247 21.9324 21.9819 27.3056 14.7562 23.9533ZM18.0268 17.4345C18.9063 17.329 19.6687 16.5823 19.6687 15.5704C19.6687 14.1302 18.1247 13.2252 16.8962 13.9453C15.8184 14.577 15.6864 16.0473 16.4996 16.8849C13.5825 22.4173 7.06777 24.5805 3.62989 22.4807C1.7261 21.3179 -0.237099 17.1552 4.33991 13.3237C4.20803 12.8879 4.01024 12.1501 3.91137 11.6136C-4.31757 17.9219 1.60595 27.9594 10.8842 24.0505C13.3927 22.9937 16.1126 21.1466 18.0268 17.4345H18.0268ZM7.99224 19.5762C9.22252 20.2963 10.7687 19.3913 10.7687 17.9511C10.7687 16.7493 9.69189 15.921 8.62051 16.098C1.81507 3.16676 16.1432 -4.51242 17.9865 7.72395L19.6347 8.22694C18.4363 -1.61602 11.2016 -0.715371 8.88396 1.27815C7.14699 2.77225 2.50356 8.02956 7.30096 17.0351C6.8387 17.8818 7.06909 19.0359 7.99224 19.5762Z" fill="#07CFF6"/>
</svg>
