<svg width="26" height="25" viewBox="0 0 26 25" fill="none" xmlns="http://www.w3.org/2000/svg">
<path d="M24.9002 0.0627046H23.2153L22.0383 0.0578948C21.1027 0.0578948 20.2436 0.899624 19.5868 1.56627C18.9349 2.20214 18.3846 2.98903 17.8636 3.78074C17.6686 3.1747 17.432 2.58789 17.1605 2.02706C16.8216 1.24016 16.1697 0.48886 15.4203 0.31378C15.048 0.218545 14.6245 0.258948 14.2514 0.258948H11.7496C11.3684 0.258948 10.9498 0.198343 10.5767 0.299351C9.83619 0.46962 9.17537 1.22092 8.84536 2.01263C8.58282 2.54845 8.34141 3.14488 8.14715 3.7615C7.62206 2.97461 7.07178 2.1829 6.4329 1.53164C5.77696 0.855373 4.92187 0.00883396 3.98631 0.00883396H1.1333C0.726888 0.00883396 -0.183474 -0.126804 0.0327371 0.664902C0.0839449 0.855373 0.265204 1.03045 0.366807 1.18052C0.489543 1.3556 0.604151 1.54607 0.705754 1.74135C0.870757 2.04726 1.0317 2.35798 1.18451 2.68313C1.54865 3.45463 1.86159 4.26173 2.22573 5.03323C3.03043 6.74651 3.88958 8.40015 4.92674 9.92295C5.6973 11.0398 6.61985 12.173 7.76756 12.7338L5.18522 18.5105C4.43986 20.1439 3.69044 21.8024 2.90363 23.4204L2.78902 23.6513C2.68742 23.8822 2.53948 24.2073 2.53948 24.4584C2.53948 24.9798 3.19137 25 3.51731 25C3.86032 25 4.19927 24.9798 4.54146 24.9798C5.12588 24.9596 5.71437 24.9596 6.31504 24.9394C6.65805 24.9394 7.01326 24.9596 7.37334 24.9048C7.8121 24.8494 8.23644 24.6873 8.61971 24.4285C9.00298 24.1698 9.33689 23.82 9.60047 23.4012C9.76141 23.1107 11.357 20.0141 12.0097 18.7616C12.2511 18.2806 13.0176 16.8723 13.0176 16.8723C13.0176 16.8723 13.7841 18.2806 14.0255 18.7616C14.6603 20.0141 16.2567 23.0953 16.4347 23.381C16.6958 23.8021 17.03 24.1524 17.4148 24.4082C17.7996 24.664 18.2261 24.8196 18.6659 24.8644C19.0048 24.899 19.3641 24.8846 19.703 24.8846L21.4766 24.9048H22.5008C22.8137 24.9048 23.4786 24.8846 23.4786 24.3439C23.4786 24.0736 23.3307 23.7523 23.2201 23.5224L23.1055 23.2915C22.3057 21.6533 21.5774 20.015 20.828 18.3816C19.964 16.473 19.1048 14.5491 18.2245 12.6598C19.3804 12.1038 20.2907 10.9715 21.0694 9.85369C22.1106 8.33089 22.9576 6.65705 23.7704 4.9582C24.1305 4.1713 24.4394 3.36036 24.8116 2.59366C24.9596 2.26755 25.1205 1.9578 25.2855 1.64708C25.3831 1.45661 25.4928 1.26614 25.6245 1.09106C25.722 0.925597 25.9041 0.755327 25.9675 0.569666C26.1788 -0.22204 25.3066 0.0790583 24.9002 0.0636667V0.0627046ZM11.1335 3.82018C11.2058 3.81056 11.2562 4.02604 11.2903 4.45605L11.2944 4.47625C11.2944 4.49645 11.1335 4.47625 10.9855 4.45605L10.8075 4.42142C10.727 4.40122 10.6466 4.36081 10.562 4.32137C10.3458 4.23575 10.215 4.11551 10.1174 4.02604C10.0599 3.97556 10.0111 3.91254 9.97356 3.84038C10.4897 3.85 10.8799 3.84519 11.1335 3.82018ZM11.3318 6.92159V6.9062H11.3358L11.3318 6.92159ZM11.3489 6.85618C11.2342 7.00625 11.0611 7.06204 10.8961 7.10148C10.7311 7.14092 10.545 7.17171 10.3922 7.07166C10.2142 6.9668 10.1426 6.71092 10.0914 6.49544C10.028 6.22512 9.97275 5.9346 9.99388 5.6489H10.0109C10.0109 5.49402 10.0573 5.32279 10.1085 5.1833C10.1508 5.06229 10.2196 4.95673 10.3076 4.87739C10.536 4.67153 10.888 4.67153 11.0953 4.91202C11.1928 5.02746 11.2692 5.16214 11.3196 5.31317C11.4383 5.64409 11.5309 6.02503 11.5098 6.39539C11.5019 6.56616 11.4451 6.72866 11.3489 6.85618ZM13.6142 7.38238C13.5939 7.4171 13.5661 7.44469 13.5337 7.46222C13.372 7.59683 13.1769 7.66385 12.9794 7.65269C12.7818 7.664 12.5867 7.59697 12.425 7.46222C12.393 7.44404 12.3653 7.41658 12.3446 7.38238C12.3364 7.38238 12.3275 7.36218 12.3275 7.34775C12.3275 7.33332 12.3316 7.32273 12.3405 7.31312V7.36314C12.3535 7.34775 12.3828 7.34775 12.3958 7.34775C12.421 7.36314 12.4421 7.38238 12.4681 7.40258C12.6209 7.52283 12.7981 7.58343 12.9802 7.57766C13.1623 7.58247 13.3403 7.52283 13.4923 7.40258C13.5175 7.38238 13.5435 7.34775 13.5687 7.32754C13.5939 7.30734 13.615 7.30734 13.6321 7.32754C13.6491 7.34775 13.6402 7.36218 13.615 7.38238H13.6142ZM15.8576 6.50121C15.8113 6.71188 15.7389 6.9822 15.5568 7.07743C15.404 7.17267 15.2179 7.13804 15.0529 7.10244C14.8879 7.06204 14.7188 7.0024 14.5953 6.85714C14.5021 6.72777 14.447 6.56603 14.4384 6.39635C14.4173 6.02599 14.5107 5.64505 14.6335 5.31413C14.6847 5.16406 14.7603 5.02842 14.8537 4.91299C15.061 4.67249 15.413 4.67249 15.6454 4.87258C15.7302 4.95769 15.7982 5.06375 15.8446 5.1833V5.19292C15.9039 5.33337 15.9421 5.49402 15.9543 5.65371C15.9795 5.93941 15.9202 6.22993 15.8568 6.50025L15.8576 6.50121ZM15.8324 4.03566C15.7348 4.1309 15.604 4.24634 15.3918 4.32137C15.3106 4.35717 15.2271 4.38579 15.1423 4.40699C15.1293 4.4118 15.0537 4.42719 14.9643 4.44739V4.47721C14.8204 4.49741 14.6554 4.51761 14.6595 4.47721C14.6936 4.05587 14.744 3.84135 14.8164 3.84135C15.0748 3.88175 15.4601 3.88175 15.9803 3.86155C15.9421 3.93175 15.8917 3.99145 15.8324 4.03663V4.03566Z" fill="#07CFF6"/>
</svg>
