<svg width="25" height="25" viewBox="0 0 25 25" fill="none" xmlns="http://www.w3.org/2000/svg">
<path d="M25 12.5C25 5.6 19.4 0 12.5 0C5.6 0 0 5.6 0 12.5C0 19.4 5.6 25 12.5 25C19.4 25 25 19.4 25 12.5ZM12.5 1.2625C18.7125 1.2625 23.7375 6.2875 23.7375 12.5C23.7375 18.7125 18.7125 23.7375 12.5 23.7375C6.2875 23.7375 1.2625 18.7125 1.2625 12.5C1.2625 6.2875 6.2875 1.2625 12.5 1.2625ZM10.0125 18.525L6.2 8.2625C6.8125 8.225 7.5125 8.1625 7.5125 8.1625C8.05 8.1 7.9875 6.9 7.4375 6.925C7.4375 6.925 5.825 7.05 4.775 7.05C4.5875 7.05 4.3625 7.05 4.125 7.0375C5.925 4.325 9 2.5375 12.5 2.5375C15.1125 2.5375 17.4875 3.525 19.2625 5.15C18.5125 5.05 17.45 5.5875 17.45 6.925C17.45 7.75 17.925 8.45 18.4375 9.275C18.825 9.95 19.0625 10.8 19.0625 12.0375C19.0625 13.7125 17.475 17.6375 17.475 17.6375L14.0875 8.2625C14.6875 8.225 15.025 8.0625 15.025 8.0625C15.5625 8 15.5 6.6875 14.9625 6.7125C14.9625 6.7125 13.3375 6.85 12.2875 6.85C11.3125 6.85 9.65 6.7125 9.65 6.7125C9.1125 6.6875 9.05 8.0375 9.5875 8.0625L10.6375 8.1625L12.0375 11.9625L10.0125 18.525ZM17.5375 21.2125L20.8 12.5C20.8 12.5 21.6375 10.3875 21.2875 7.7375C22.075 9.1625 22.4625 10.7625 22.4625 12.5C22.4625 16.2 20.5125 19.475 17.5375 21.2125ZM3.35 8.4625L8.125 21.5625C4.7875 19.9375 2.5375 16.4625 2.5375 12.5C2.5375 11.05 2.7875 9.7125 3.35 8.4625ZM12.6625 14.125L15.525 21.9375C14.5875 22.275 13.5625 22.4625 12.5 22.4625C11.6 22.4625 10.7375 22.325 9.925 22.0875L12.6625 14.125Z" fill="#07CFF6"/>
</svg>
